<svg width="347" height="257" viewBox="0 0 347 257" fill="none" xmlns="http://www.w3.org/2000/svg">
<g clip-path="url(#clip0)">
<path opacity="0.1" d="M3.72852 122.451C9.19435 143.575 20.7554 161.835 39.0252 170.687C77.006 189.083 162.663 179.595 226.591 168.705C259.66 163.072 288.726 147.527 309.841 125.651L3.72852 122.451Z" fill="#416FF4"/>
<path opacity="0.1" d="M338.966 23.0181H303.889C302.225 23.0181 300.859 21.7846 300.859 20.2774C300.859 18.7701 302.225 17.5334 303.889 17.5334H309.956C308.288 17.5334 306.926 16.2999 306.926 14.7895C306.926 13.2791 308.288 12.0487 309.956 12.0487H305.626C303.959 12.0487 302.593 10.8152 302.593 9.30478C302.593 7.79435 303.959 6.56399 305.626 6.56399H323.934C319.872 4.85533 315.123 3.6407 309.651 3.00191C259.728 -2.79747 241.905 1.03836 235.618 4.9812C227.782 9.95691 219.077 13.4094 209.96 15.1577C179.16 20.9067 121.559 27.8232 69.3524 12.955C43.4046 5.55075 24.1184 18.0463 12.5605 38.9342H345.058C344.624 32.8642 343.324 27.2568 340.939 22.351C340.374 22.7872 339.679 23.022 338.966 23.0181H338.966Z" fill="#416FF4"/>
<path opacity="0.1" fill-rule="evenodd" clip-rule="evenodd" d="M2.11425 115.215C-0.134417 103.062 -0.592405 90.6457 0.754858 78.3604L331.474 95.8844C325.757 106.677 318.554 116.615 310.077 125.407L2.11425 115.215ZM116.494 104.651H122.558C124.226 104.651 125.588 103.421 125.588 101.91C125.588 100.4 124.226 99.1664 122.558 99.1664H118.228C119.896 99.1664 121.258 97.936 121.258 96.4256C121.258 94.9152 119.896 93.6817 118.228 93.6817H83.1515C81.4837 93.6817 80.1181 94.9184 80.1181 96.4256C80.1181 97.9329 81.4837 99.1664 83.1515 99.1664H87.4845C85.8168 99.1664 84.4542 100.403 84.4542 101.91C84.4542 103.418 85.8168 104.651 87.4845 104.651H81.4176C79.753 104.651 78.3874 105.888 78.3874 107.395C78.3874 108.902 79.753 110.136 81.4176 110.136H116.494C118.162 110.136 119.527 108.902 119.527 107.395C119.527 105.888 118.162 104.651 116.494 104.651Z" fill="#416FF4"/>
<path opacity="0.1" fill-rule="evenodd" clip-rule="evenodd" d="M8.85126 46.5178L345.071 39.123C345.477 45.0263 345.074 51.3606 344.064 57.9089C343.017 64.7114 341.383 71.4106 339.18 77.9314H0.798828C2.04807 66.7858 4.76054 56.0303 8.85126 46.5178ZM62.9999 63.3685H69.0636C70.7313 63.3685 72.0939 62.1349 72.0939 60.6277C72.0939 59.1204 70.7313 57.8837 69.0636 57.8837H64.7337C66.4015 57.8837 67.764 56.6534 67.764 55.1429C67.764 53.6325 66.4015 52.399 64.7337 52.399H29.6573C27.9896 52.399 26.6239 53.6357 26.6239 55.1429C26.6239 56.6502 27.9896 57.8837 29.6573 57.8837H33.9903C32.3226 57.8837 30.9601 59.1204 30.9601 60.6277C30.9601 62.1349 32.3226 63.3685 33.9903 63.3685H27.9235C26.2589 63.3685 24.8932 64.6051 24.8932 66.1124C24.8932 67.6197 26.2589 68.8563 27.9235 68.8563H62.9999C64.6676 68.8563 66.0333 67.6197 66.0333 66.1124C66.0333 64.6051 64.6676 63.3685 62.9999 63.3685Z" fill="#416FF4"/>
<path opacity="0.1" d="M171.524 245.821C249.204 245.821 312.175 240.028 312.175 232.882C312.175 225.735 249.204 219.942 171.524 219.942C93.844 219.942 30.8721 225.735 30.8721 232.882C30.8721 240.028 93.844 245.821 171.524 245.821Z" fill="#416FF4"/>
<path fill-rule="evenodd" clip-rule="evenodd" d="M314.875 125.98C314.875 125.967 314.875 125.954 314.876 125.941V125.843C314.813 125.483 314.677 125.139 314.476 124.833C313.757 123.681 312.753 122.732 311.563 122.077C310.985 121.76 310.347 121.493 309.709 121.227C308.054 120.536 306.401 119.845 305.801 118.276C305.629 117.821 305.57 117.339 305.511 116.857V116.857C305.483 116.625 305.455 116.393 305.414 116.164C304.966 113.929 303.36 112.102 301.2 111.372C300.777 111.23 300.338 111.132 299.9 111.035C299.317 110.905 298.734 110.775 298.186 110.541C296.04 109.628 294.907 107.379 293.947 105.299C292.705 102.613 291.464 99.9271 290.222 97.2399C289.278 97.715 288.057 97.4916 287.172 96.8969C286.32 96.2625 285.642 95.4238 285.199 94.4581C284.646 93.3838 284.229 92.2478 283.812 91.1131C283.265 89.6221 282.718 88.1333 281.864 86.7896C280.36 84.4233 277.355 82.5542 274.699 83.5831C274.18 83.8422 273.644 84.0641 273.094 84.2471C272.06 84.4888 270.976 84.0836 269.918 83.6882C268.648 83.2137 267.416 82.7533 266.354 83.4415C266.03 83.649 265.767 83.9376 265.589 84.2786C265.587 84.2576 265.587 84.2366 265.589 84.2156C265.336 84.7274 265.194 85.2874 265.174 85.8582V86.198V86.2547C265.174 86.5086 265.183 86.7646 265.192 87.0214C265.199 87.2228 265.206 87.4247 265.208 87.6266C265.215 88.0125 265.186 88.3981 265.12 88.7783V88.7468C265.083 88.9608 265.029 89.1714 264.957 89.3762C264.68 90.1192 264.135 90.7221 263.59 91.3246C263.139 91.8246 262.687 92.3243 262.389 92.9037V92.8407C262.315 92.9797 262.251 93.1237 262.197 93.2718C262.08 93.6067 262.019 93.9587 262.018 94.3134C261.988 95.5733 262.675 96.7943 263.377 98.0427C264.013 99.1732 264.662 100.326 264.802 101.551C265.013 103.376 265.432 103.961 266.983 104.993L267.323 105.22C267.252 105.22 267.18 105.225 267.105 105.23C267.038 105.235 266.968 105.24 266.895 105.242C266.835 105.243 266.775 105.249 266.716 105.261C266.161 105.108 265.568 105.212 265.098 105.544C264.065 106.364 261.806 105.923 260.411 105.651C260.201 105.61 260.01 105.572 259.846 105.544C258.597 105.327 254.318 105.912 253.72 108.285C253.122 110.657 252.096 115.554 252.096 115.554C252.096 115.554 252.096 118.66 251.715 119.238C251.701 119.279 251.701 119.324 251.715 119.364L251.715 119.456C251.716 120.551 251.721 125.516 250.903 126.825C250.696 127.14 250.711 127.835 250.866 128.691C249.978 129.833 249.144 131.168 249.292 132.042C249.563 133.833 253.194 139.462 258.399 136.448C258.399 136.448 261.36 131.032 257.634 128.153L257.795 127.524C258.921 128.908 259.755 129.903 259.755 129.903C259.755 129.903 259.799 130.019 259.868 130.217H259.755C260.241 131.541 260.536 132.927 260.63 134.333C260.616 134.849 260.522 135.359 260.353 135.847H260.451C260.422 135.954 260.391 136.061 260.353 136.161C260.17 136.693 259.829 137.155 259.374 137.486C256.772 139.33 253.792 152.499 253.792 152.499C253.792 152.499 247.889 173.787 246.709 174.998C245.733 175.993 251.863 178.793 256.464 178.46C257.106 178.421 257.74 178.301 258.352 178.101C258.38 178.416 258.412 178.73 258.443 179.017C258.54 179.961 258.641 180.835 258.704 181.109C258.868 181.795 259.192 188.8 259.192 188.8C259.192 188.8 258.528 193.35 258.688 196.515C258.688 196.681 258.705 196.841 258.721 196.999C258.726 197.048 258.731 197.096 258.736 197.145L258.163 197.233C257.294 199.184 260.872 215.462 261.36 216.831C261.683 217.909 261.865 219.025 261.901 220.15C261.901 220.15 261.587 221.308 261.848 221.941C262.01 222.327 262.116 222.735 262.162 223.152C262.162 223.152 261.948 224.203 262.272 224.889C262.597 225.575 262.219 226.777 262.219 226.777C262.219 226.777 262.112 231.519 261.137 234.1C260.596 235.513 260.854 237.108 261.813 238.279C261.881 238.368 261.954 238.453 262.033 238.534L262.051 238.534C262.387 238.536 267.446 238.576 268.361 238.533H268.484C268.865 238.48 269.84 234.213 268.972 232.158C268.103 230.103 268.865 227.574 268.865 227.574V223.835C268.865 223.835 269.84 222.935 268.865 221.003C267.889 219.071 268.05 218.486 268.05 218.486C268.05 218.486 269.135 215.377 267.996 214.376C266.857 213.376 268.214 209.581 268.214 209.581L268.597 196.931C268.396 196.865 268.191 196.813 267.984 196.773C267.962 196.566 267.94 196.352 267.918 196.125C267.694 193.834 267.502 190.719 268 189.832C268.497 188.944 268.736 181.197 268.815 175.813L273.774 176.002C273.878 178.519 273.988 180.816 274.057 181.109C274.221 181.795 274.548 188.8 274.548 188.8C274.548 188.8 273.881 193.35 274.041 196.515C274.041 196.681 274.058 196.841 274.074 196.998C274.079 197.047 274.084 197.096 274.088 197.145L273.516 197.233C272.647 199.184 276.225 215.462 276.713 216.831C277.036 217.909 277.219 219.025 277.257 220.15C277.257 220.15 276.943 221.308 277.201 221.941C277.363 222.327 277.469 222.735 277.515 223.152C277.515 223.152 277.301 224.203 277.625 224.889C277.949 225.575 277.572 226.777 277.572 226.777C277.572 226.777 277.465 231.519 276.489 234.1C275.957 235.515 276.224 237.107 277.188 238.272C277.256 238.362 277.329 238.447 277.408 238.527L277.417 238.527C277.661 238.529 282.812 238.57 283.736 238.527H283.859C284.24 238.474 285.215 234.207 284.347 232.152C283.478 230.097 284.24 227.567 284.24 227.567V223.835C284.24 223.835 285.215 222.935 284.24 221.003C283.264 219.071 283.425 218.486 283.425 218.486C283.425 218.486 284.51 215.377 283.371 214.376C282.232 213.376 283.588 209.581 283.588 209.581L283.979 196.931C283.772 196.864 283.562 196.812 283.349 196.773C283.327 196.566 283.305 196.352 283.283 196.125C283.06 193.834 282.868 190.719 283.365 189.832C283.765 189.105 283.994 184.423 284.098 179.85C284.098 179.536 284.098 179.221 284.123 178.906C286.402 178.812 288.671 178.557 290.914 178.145C290.914 178.145 288.261 168.765 289.073 167.238C289.422 166.581 288.919 163.079 288.23 159.306C289.191 160.083 290.386 160.516 291.622 160.533C292.808 162.814 296.418 168.063 298.45 168.872C300.835 169.816 299.045 161.445 297.909 160.234C297.371 159.572 296.919 158.846 296.562 158.072C296.581 158.049 296.601 158.029 296.621 158.009L296.621 158.009C296.634 157.995 296.647 157.982 296.66 157.968C296.691 157.934 296.716 149.063 296.172 149.224C295.628 149.384 294.98 147.905 294.98 147.905L293.299 133.156L292.594 126.983C292.895 127.205 293.225 127.386 293.557 127.567L293.557 127.568C293.872 127.741 294.189 127.914 294.482 128.125C295.858 129.133 296.456 130.782 297.037 132.389C297.147 132.693 297.257 132.996 297.371 133.292C297.963 134.824 298.793 136.344 300.156 137.307C301.518 138.27 303.517 138.525 304.876 137.549C306.135 136.634 306.506 134.982 306.783 133.474C309.067 134.277 311.84 132.131 311.544 129.786C311.528 129.664 311.507 129.539 311.485 129.414C311.404 128.946 311.321 128.468 311.559 128.068C311.863 127.566 312.497 127.462 313.132 127.359C313.762 127.256 314.393 127.153 314.706 126.662C314.812 126.491 314.867 126.293 314.864 126.092C314.873 126.048 314.876 126.029 314.876 126.007C314.875 125.998 314.875 125.989 314.875 125.98ZM284.318 134.119C284.284 134.683 285.058 139.208 285.687 142.788C285.171 140.557 284.136 138.175 282.097 136.542C282.097 136.542 282.097 136.429 282.072 136.228H282.097C282.097 136.228 282.012 135.328 281.999 134.047C282.003 132.912 282.087 131.778 282.251 130.655V130.626H282.21C282.21 130.557 282.224 130.486 282.237 130.415C282.242 130.39 282.247 130.365 282.251 130.34C282.376 129.392 282.633 128.466 283.016 127.59C283.185 127.246 283.379 126.916 283.598 126.602C283.934 129.645 284.35 133.55 284.318 134.119V134.119ZM286.012 144.605C286.011 144.605 286.011 144.605 286.011 144.604H286.011C286.011 144.605 286.011 144.605 286.012 144.605ZM286.012 144.605C286.193 146.001 286.226 147.412 286.109 148.814C286.109 148.814 287.257 153.918 288.157 158.761V158.708L286.486 147.235C286.486 147.235 286.288 146.15 286.012 144.605Z" fill="url(#paint0_linear)"/>
<path d="M265.532 102.18C265.217 99.2727 262.071 96.7648 263.015 93.9988C263.528 92.4915 265.133 91.5696 265.674 90.0717C266.033 89.0836 265.872 87.998 265.875 86.947C265.878 85.896 266.124 84.7223 266.999 84.1401C268.887 82.8815 271.316 85.4712 273.519 84.9426C274.051 84.7604 274.57 84.5396 275.07 84.2817C277.641 83.2591 280.548 85.1219 281.993 87.4757C283.437 89.8294 283.978 92.6363 285.218 95.1096C285.641 96.0647 286.297 96.8987 287.125 97.5357C287.981 98.1273 289.151 98.3507 290.077 97.8787L293.68 105.903C294.624 107.97 295.706 110.211 297.77 111.12C298.695 111.526 299.727 111.617 300.684 111.948C302.8 112.694 304.359 114.51 304.775 116.715C304.898 117.42 304.901 118.15 305.149 118.82C305.952 120.985 308.711 121.47 310.722 122.596C311.885 123.252 312.861 124.196 313.554 125.337C313.869 125.881 314.139 126.596 313.803 127.131C313.195 128.112 311.348 127.533 310.763 128.531C310.467 129.034 310.675 129.664 310.763 130.243C311.049 132.574 308.365 134.711 306.156 133.912C305.889 135.413 305.527 137.058 304.312 137.968C303.006 138.943 301.071 138.685 299.753 137.729C298.434 136.772 297.635 135.258 297.062 133.732C296.367 131.876 295.848 129.78 294.265 128.587C293.692 128.159 293.006 127.883 292.446 127.451C291.187 126.489 290.558 124.9 290.108 123.361C289.526 121.441 289.063 119.468 288.22 117.656C287.377 115.843 286.042 114.157 284.214 113.329C282.499 112.558 280.523 112.608 278.752 111.982C275.702 110.906 273.446 108.341 270.413 107.133C269.443 106.726 268.524 106.206 267.675 105.585C266.149 104.581 265.734 103.999 265.532 102.18Z" fill="#201F34"/>
<g opacity="0.1">
<path d="M265.816 89.4554C265.881 89.3323 265.938 89.2051 265.986 89.0747C266.342 88.0866 266.185 87.001 266.188 85.95C266.188 85.5995 266.22 85.2497 266.285 84.9053C265.995 85.527 265.854 86.208 265.873 86.894C265.87 87.7404 265.971 88.6278 265.816 89.4554Z" fill="black"/>
<path d="M304.609 136.98C303.303 137.953 301.367 137.698 300.049 136.738C298.73 135.778 297.928 134.271 297.371 132.739C296.676 130.882 296.16 128.786 294.574 127.594C294.004 127.166 293.315 126.886 292.758 126.458C291.499 125.495 290.87 123.906 290.417 122.383C289.835 120.463 289.375 118.49 288.529 116.678C287.682 114.865 286.355 113.179 284.523 112.351C282.811 111.58 280.835 111.63 279.064 111.004C276.011 109.928 273.755 107.364 270.725 106.155C269.755 105.746 268.835 105.227 267.984 104.607C266.492 103.578 266.096 102.996 265.876 101.18C265.561 98.4552 262.792 96.0794 263.223 93.5117C263.153 93.6506 263.091 93.7935 263.037 93.9397C262.093 96.7088 265.24 99.2167 265.555 102.121C265.759 103.937 266.184 104.519 267.663 105.548C268.514 106.168 269.434 106.687 270.404 107.096C273.434 108.304 275.69 110.872 278.743 111.945C280.514 112.574 282.49 112.521 284.202 113.292C286.033 114.12 287.349 115.809 288.208 117.619C289.067 119.428 289.526 121.395 290.096 123.324C290.558 124.847 291.166 126.436 292.437 127.399C293.007 127.827 293.696 128.107 294.253 128.535C295.826 129.727 296.355 131.823 297.05 133.68C297.623 135.206 298.425 136.716 299.744 137.673C301.062 138.629 302.997 138.887 304.303 137.915C305.137 137.286 305.562 136.326 305.842 135.297C305.593 135.961 305.166 136.543 304.609 136.98Z" fill="black"/>
<path d="M311.075 127.543C310.954 127.769 310.902 128.025 310.924 128.28C311.635 127.578 313.24 127.99 313.8 127.087C313.93 126.864 313.981 126.603 313.945 126.348C313.215 127.04 311.61 126.628 311.075 127.543Z" fill="black"/>
<path d="M306.453 132.923C306.393 133.238 306.333 133.575 306.258 133.902C308.184 134.503 310.408 132.958 310.723 131.007C309.958 132.508 308.07 133.512 306.453 132.923Z" fill="black"/>
</g>
<path d="M269.597 103.693C269.597 103.693 270.645 105.808 267.552 105.852C264.458 105.896 269.544 119.584 269.544 119.584L274.685 126.129L281.083 122.668L281.451 113.121L281.923 107.353C281.923 107.353 275.944 105.412 277.045 102.844C278.147 100.276 269.597 103.693 269.597 103.693Z" fill="#FFD6D6"/>
<path d="M288.166 159.504C288.166 159.504 291.942 163.221 296.348 158.29L292.965 154.699H288.685L288.166 159.504Z" fill="#575A89"/>
<path opacity="0.1" d="M288.575 154.699L288.056 159.504C288.056 159.504 291.832 163.221 296.237 158.29" fill="black"/>
<path d="M294.929 155.354C294.929 155.354 296.449 159.34 297.55 160.546C298.651 161.751 300.382 170.09 298.076 169.146C295.769 168.202 291.364 161.175 291.099 159.97C290.835 158.765 290.734 155.354 290.734 155.354H294.929Z" fill="#FFD6D6"/>
<path d="M261.941 175.807L282.288 176.594L279.928 167.991L269.679 167.783L261.941 175.807Z" fill="#575A89"/>
<path opacity="0.1" d="M264.77 175.807L285.119 176.594L282.759 167.991L272.507 167.783L264.77 175.807Z" fill="black"/>
<path d="M268.6 190.009C268.118 190.905 268.304 194.008 268.521 196.302C268.659 197.762 268.81 198.885 268.81 198.885C268.81 198.885 261.205 201.245 260.053 199.2C259.761 198.681 259.616 197.771 259.565 196.705C259.408 193.558 260.053 189.024 260.053 189.024C260.053 189.024 259.739 182.051 259.581 181.368C259.518 181.094 259.421 180.225 259.326 179.285C259.188 177.887 259.056 176.333 259.056 176.333L269.44 170.826C269.44 170.826 269.44 171.858 269.421 173.447C269.364 178.438 269.198 188.907 268.6 190.009Z" fill="#FFD6D6"/>
<path opacity="0.1" d="M268.811 198.885C268.811 198.885 261.206 201.245 260.054 199.2C259.762 198.681 259.617 197.771 259.566 196.705C261.14 196.465 265.929 195.805 268.522 196.302C268.66 197.762 268.811 198.885 268.811 198.885Z" fill="black"/>
<path d="M269.072 238.534H268.952C268.036 238.568 262.832 238.534 262.832 238.534C262.756 238.454 262.684 238.37 262.618 238.282C261.682 237.111 261.426 235.536 261.941 234.128C262.885 231.558 262.989 226.838 262.989 226.838C262.989 226.838 263.357 225.632 263.043 224.949C262.728 224.267 262.936 223.219 262.936 223.219C262.887 222.804 262.781 222.399 262.621 222.014C262.36 221.384 262.674 220.229 262.674 220.229C262.638 219.11 262.462 218 262.149 216.925C261.677 215.563 258.216 199.357 259.056 197.416C259.056 197.416 266.397 196.157 269.179 197.101L268.811 209.688C268.811 209.688 267.498 213.464 268.6 214.461C269.701 215.459 268.653 218.552 268.653 218.552C268.653 218.552 268.496 219.128 269.44 221.07C270.384 223.011 269.44 223.902 269.44 223.902V227.624C269.44 227.624 268.707 230.142 269.544 232.187C270.381 234.232 269.44 238.468 269.072 238.534Z" fill="#3F3D56"/>
<path d="M283.481 190.008C283 190.905 283.186 194.007 283.403 196.301C283.541 197.761 283.692 198.885 283.692 198.885C283.692 198.885 276.087 201.245 274.935 199.199C274.642 198.68 274.498 197.771 274.447 196.704C274.29 193.557 274.935 189.023 274.935 189.023C274.935 189.023 274.62 182.05 274.463 181.367C274.378 180.999 274.23 177.487 274.114 174.337C274.016 171.65 273.938 169.221 273.938 169.221L284.322 170.826C284.322 170.826 284.322 175.391 284.193 180.083C284.079 184.633 283.869 189.297 283.481 190.008Z" fill="#FFD6D6"/>
<path opacity="0.1" d="M283.692 198.885C283.692 198.885 276.087 201.245 274.935 199.2C274.642 198.681 274.498 197.771 274.447 196.705C276.021 196.465 280.81 195.805 283.403 196.302C283.541 197.762 283.692 198.885 283.692 198.885Z" fill="black"/>
<path d="M283.952 238.534H283.833C282.917 238.568 277.712 238.534 277.712 238.534C277.636 238.454 277.565 238.37 277.498 238.282C276.563 237.111 276.306 235.536 276.822 234.128C277.766 231.545 277.86 226.825 277.86 226.825C277.86 226.825 278.228 225.62 277.914 224.937C277.599 224.254 277.807 223.206 277.807 223.206C277.758 222.792 277.652 222.386 277.492 222.001C277.231 221.372 277.546 220.217 277.546 220.217C277.51 219.098 277.333 217.988 277.02 216.913C276.548 215.55 273.087 199.345 273.927 197.403C273.927 197.403 281.268 196.144 284.05 197.088L283.682 209.675C283.682 209.675 282.369 213.451 283.471 214.449C284.572 215.446 283.524 218.54 283.524 218.54C283.524 218.54 283.367 219.115 284.311 221.057C285.255 222.998 284.311 223.889 284.311 223.889V227.611C284.311 227.611 283.578 230.129 284.415 232.174C285.252 234.22 284.32 238.468 283.952 238.534Z" fill="#3F3D56"/>
<path opacity="0.1" d="M273.688 106.167C277.772 106.167 281.083 102.857 281.083 98.7727C281.083 94.6887 277.772 91.3779 273.688 91.3779C269.604 91.3779 266.293 94.6887 266.293 98.7727C266.293 102.857 269.604 106.167 273.688 106.167Z" fill="black"/>
<path d="M273.688 105.852C277.772 105.852 281.083 102.541 281.083 98.4573C281.083 94.3733 277.772 91.0625 273.688 91.0625C269.604 91.0625 266.293 94.3733 266.293 98.4573C266.293 102.541 269.604 105.852 273.688 105.852Z" fill="#FFD6D6"/>
<path opacity="0.1" d="M259.056 176.333L269.44 170.826C269.44 170.826 269.44 171.858 269.421 173.447C267.904 174.354 265.617 175.716 263.417 177.003C262.221 177.705 261.054 178.385 260.053 178.954C259.821 179.08 259.577 179.186 259.326 179.269C259.188 177.887 259.056 176.333 259.056 176.333Z" fill="black"/>
<path opacity="0.1" d="M284.321 170.813C284.321 170.813 284.321 175.379 284.192 180.07H284.154C283.378 180.098 282.601 180.074 281.829 179.998C280.472 179.853 279.387 179.495 278.997 178.783C278.207 177.399 275.995 175.637 274.125 174.325C274.028 171.637 273.949 169.208 273.949 169.208L284.321 170.813Z" fill="black"/>
<path d="M282.389 130.822C282.126 132.87 282.075 134.94 282.238 136.999C287.008 140.932 286.118 149.217 286.118 149.217C286.118 149.217 289.79 166.002 289.003 167.522C288.217 169.042 290.784 178.378 290.784 178.378C288.596 178.793 286.38 179.047 284.154 179.14C283.378 179.167 282.601 179.143 281.829 179.067C280.472 178.922 279.387 178.564 278.997 177.853C277.53 175.285 271.183 171.455 271.183 171.455C271.183 171.455 267.162 173.866 263.417 176.059C262.222 176.761 261.054 177.44 260.053 178.01C259.241 178.441 258.344 178.687 257.426 178.73C252.973 179.061 247.042 176.273 247.986 175.285C249.141 174.076 254.858 152.89 254.858 152.89C254.858 152.89 257.741 139.777 260.258 137.943C260.699 137.609 261.029 137.15 261.202 136.624C262.064 134.23 260.623 130.391 260.623 130.391C260.623 130.391 252.495 120.375 252.86 119.796C253.225 119.217 253.228 116.127 253.228 116.127C253.228 116.127 254.226 111.249 254.802 108.889C255.377 106.529 259.522 105.95 260.727 106.161C261.932 106.372 264.657 107.105 265.809 106.161C266.96 105.217 268.905 106.529 268.905 106.529L273.682 107.845L277.977 105.327C277.977 105.327 282.282 105.547 282.65 106.123C283.018 106.699 288.682 107.804 288.682 107.804C291.565 109.742 291.461 118.974 291.461 118.974C291.461 118.974 284.538 125.004 283.122 128.1C282.755 128.97 282.509 129.885 282.389 130.822Z" fill="#575A89"/>
<path d="M289.894 117.697L291.467 118.956L293.094 133.588L294.717 148.274C294.717 148.274 295.347 149.743 295.872 149.586C296.398 149.429 296.344 158.29 296.344 158.29C296.344 158.29 290.321 154.586 288.163 159.504L286.482 147.645C286.482 147.645 284.33 135.53 284.384 134.586C284.437 133.642 283.282 123.415 283.282 123.415L289.894 117.697Z" fill="#575A89"/>
<path d="M254.02 118.379L252.866 119.795C252.866 119.795 252.973 125.878 252.079 127.347C251.185 128.817 254.546 137.417 255.805 136.891C257.063 136.366 259.895 122.942 259.895 122.784C259.895 122.627 254.02 118.379 254.02 118.379Z" fill="#575A89"/>
<path d="M253.917 127.033C253.917 127.033 250.245 130.756 250.506 132.54C250.768 134.324 254.282 139.928 259.317 136.917C259.317 136.917 263.987 128.135 253.917 127.033Z" fill="#575A89"/>
<path opacity="0.1" d="M268.953 238.543C268.037 238.577 262.832 238.543 262.832 238.543C262.756 238.463 262.685 238.379 262.618 238.291C263.949 237.838 266.825 237.158 268.953 238.543Z" fill="black"/>
<path opacity="0.1" d="M283.839 238.543C282.924 238.577 277.719 238.543 277.719 238.543C277.643 238.463 277.571 238.379 277.505 238.291C278.83 237.838 281.706 237.158 283.839 238.543Z" fill="black"/>
<path opacity="0.1" d="M263.789 146.303C262.987 154 263.251 169.274 263.418 176.058C262.222 176.76 261.054 177.439 260.054 178.009C259.242 178.44 258.344 178.686 257.426 178.73C257.093 176.678 261.712 155.604 263.789 146.303Z" fill="black"/>
<path opacity="0.1" d="M264.771 141.937C264.749 142.047 264.368 143.721 263.789 146.304C264.016 144.098 264.33 142.516 264.771 141.937Z" fill="black"/>
<path opacity="0.1" d="M277.546 141.105C277.546 141.105 282.004 169.111 268.801 172.573C268.798 172.56 277.936 171.172 277.546 141.105Z" fill="black"/>
<path opacity="0.1" d="M284.154 179.14C283.378 179.168 282.601 179.144 281.829 179.068L278.267 140.775C280.539 142.261 283.257 169.436 284.154 179.14Z" fill="black"/>
<path opacity="0.1" d="M268.182 94.1088C268.418 94.09 268.656 94.1146 268.883 94.1812C269.217 94.3476 269.518 94.5737 269.771 94.8483C270.605 95.5454 271.739 95.7652 272.773 95.4304C273.132 95.2701 273.512 95.164 273.902 95.1158C274.504 95.1158 275.023 95.5563 275.334 96.0598C275.646 96.5633 275.806 97.1611 276.074 97.6992C276.341 98.2373 276.769 98.7471 277.358 98.8792C277.64 98.8902 277.917 98.9543 278.176 99.0681C278.334 99.1967 278.456 99.365 278.528 99.5558C279.019 100.616 279.409 101.869 280.457 102.388C280.843 102.566 281.263 102.658 281.687 102.655C282.119 102.687 282.552 102.609 282.946 102.429C283.333 102.212 283.654 101.893 283.871 101.507C284.526 100.424 284.601 99.0838 284.447 97.8282C284.255 96.2444 283.691 94.7284 282.801 93.404C280.893 90.6769 277.666 89.1875 274.352 89.5052C273.784 89.5691 273.222 89.6742 272.669 89.8199C270.668 90.3548 268.704 91.3555 267.49 93.0326C267.196 93.4513 266.873 93.8487 266.523 94.2221C267.074 94.1686 267.628 94.1214 268.182 94.1088Z" fill="black"/>
<path d="M268.182 93.7944C268.418 93.7756 268.656 93.8001 268.883 93.8668C269.217 94.0332 269.518 94.2593 269.771 94.5338C270.605 95.231 271.739 95.4508 272.773 95.116C273.132 94.9556 273.512 94.8495 273.902 94.8013C274.504 94.8013 275.023 95.2419 275.334 95.7453C275.646 96.2488 275.806 96.8467 276.074 97.3848C276.341 97.9229 276.769 98.4326 277.358 98.5648C277.64 98.5757 277.917 98.6398 278.176 98.7536C278.334 98.8823 278.456 99.0505 278.528 99.2413C279.019 100.302 279.409 101.554 280.457 102.073C280.843 102.252 281.263 102.343 281.687 102.341C282.119 102.373 282.552 102.295 282.946 102.114C283.333 101.898 283.654 101.579 283.871 101.192C284.526 100.11 284.601 98.7693 284.447 97.5138C284.255 95.9299 283.691 94.4139 282.801 93.0895C280.893 90.3624 277.666 88.873 274.352 89.1907C273.784 89.2546 273.222 89.3598 272.669 89.5054C270.668 90.0403 268.704 91.041 267.49 92.7182C267.196 93.1368 266.873 93.5343 266.523 93.9077C267.074 93.8542 267.628 93.8069 268.182 93.7944Z" fill="#201F34"/>
<path opacity="0.1" d="M260.157 111.403C260.157 111.403 260.525 114.342 259.266 115.076C258.008 115.809 260.157 111.403 260.157 111.403Z" fill="black"/>
<path opacity="0.1" d="M286.851 134.167C286.851 134.167 289.84 129.761 290.262 131.02C290.683 132.279 286.851 134.167 286.851 134.167Z" fill="black"/>
<path opacity="0.1" d="M287.062 135.634C287.062 135.634 290.011 132.015 290.294 133.431C290.577 134.847 287.062 135.634 287.062 135.634Z" fill="black"/>
<path opacity="0.1" d="M278.402 131.325C277.332 131.34 276.289 130.997 275.437 130.349H275.179C274.296 131.156 273.137 131.592 271.941 131.567C270.685 131.596 269.472 131.11 268.584 130.22H268.241C266.37 131.744 263.673 131.695 261.859 130.104L260.629 130.082C260.629 130.082 262.07 133.921 261.208 136.316L282.237 136.69C282.075 134.631 282.125 132.561 282.388 130.513V130.485L281.234 130.463C280.403 131.039 279.412 131.34 278.401 131.325L278.402 131.325Z" fill="black"/>
<path opacity="0.1" d="M278.402 131.954C277.332 131.969 276.289 131.626 275.437 130.978H275.179C274.296 131.785 273.137 132.221 271.941 132.196C270.685 132.225 269.472 131.739 268.584 130.849H268.241C266.37 132.373 263.673 132.324 261.859 130.733L260.629 130.711C260.629 130.711 262.07 134.55 261.208 136.945L282.237 137.319C282.075 135.26 282.125 133.19 282.388 131.142V131.114L281.234 131.092C280.403 131.668 279.412 131.969 278.401 131.954H278.402Z" fill="black"/>
<path d="M278.402 131.64C277.332 131.656 276.289 131.312 275.437 130.665H275.179C274.296 131.472 273.137 131.908 271.941 131.883C270.685 131.912 269.472 131.425 268.584 130.536H268.241C266.37 132.06 263.673 132.01 261.859 130.419L260.629 130.397C260.629 130.397 262.07 134.236 261.208 136.631L282.237 137.006C282.075 134.947 282.125 132.877 282.388 130.829V130.8L281.234 130.778C280.403 131.354 279.412 131.656 278.401 131.64H278.402Z" fill="#201F34"/>
<path opacity="0.1" d="M277.467 110.657C277.467 110.657 281.894 110.94 281.923 111.57C281.951 112.199 277.467 110.657 277.467 110.657Z" fill="black"/>
<path opacity="0.1" d="M266.712 107.973C266.712 107.973 262.284 108.256 262.256 108.885C262.228 109.515 266.712 107.973 266.712 107.973Z" fill="black"/>
<path opacity="0.1" d="M283.632 120.84C283.588 120.808 283.544 120.783 283.5 120.755C284.632 121.774 284.444 124.002 283.053 125.84C281.662 127.678 279.55 128.442 278.267 127.618C278.307 127.652 278.342 127.69 278.386 127.725C279.645 128.688 281.848 127.933 283.301 126.032C284.755 124.131 284.897 121.806 283.632 120.84Z" fill="black"/>
<path opacity="0.1" d="M259.311 125.605C258.191 123.584 258.336 121.353 259.604 120.507C259.556 120.529 259.506 120.548 259.459 120.573C258.068 121.347 257.886 123.666 259.037 125.756C260.189 127.845 262.266 128.902 263.657 128.141C263.703 128.114 263.747 128.085 263.789 128.053C262.401 128.682 260.431 127.625 259.311 125.605Z" fill="black"/>
<path opacity="0.1" d="M260.808 108.569L260.402 109.198L259.367 108.648L259.912 107.811C260.272 107.981 260.581 108.242 260.808 108.569Z" fill="black"/>
<path d="M254.232 131.857C254.232 131.857 255.154 127.521 253.917 126.143C252.681 124.764 253.077 117.54 254.965 117.697C256.853 117.854 259.685 123.569 259.213 124.777C258.741 125.985 256.957 132.172 256.957 132.172L254.232 131.857Z" fill="#FBBEBE"/>
<path opacity="0.1" d="M283.839 100.572C283.621 100.959 283.301 101.278 282.914 101.494C282.52 101.675 282.087 101.753 281.655 101.721C281.23 101.723 280.81 101.632 280.425 101.454C279.377 100.931 278.987 99.6788 278.496 98.6215C278.434 98.4308 278.323 98.2594 278.175 98.1243C277.92 98.0084 277.646 97.9412 277.366 97.9261C276.778 97.7939 276.353 97.281 276.083 96.746C275.812 96.2111 275.651 95.6195 275.343 95.1066C275.035 94.5937 274.512 94.1437 273.911 94.1626C273.52 94.2144 273.139 94.3259 272.782 94.493C271.747 94.8251 270.614 94.6042 269.78 93.9077C269.527 93.6331 269.226 93.407 268.892 93.2406C268.665 93.174 268.427 93.1494 268.191 93.1682C267.829 93.1682 267.47 93.2028 267.108 93.2312C266.929 93.4662 266.737 93.691 266.532 93.9046C267.083 93.8574 267.637 93.8102 268.191 93.7976C268.427 93.7788 268.665 93.8033 268.892 93.87C269.226 94.0364 269.527 94.2625 269.78 94.5371C270.614 95.2335 271.747 95.4544 272.782 95.1223C273.139 94.9552 273.52 94.8438 273.911 94.792C274.512 94.792 275.031 95.2325 275.343 95.736C275.655 96.2394 275.815 96.8373 276.083 97.3754C276.35 97.9135 276.778 98.4232 277.366 98.5554C277.646 98.5705 277.92 98.6378 278.175 98.7536C278.333 98.8823 278.455 99.0506 278.527 99.2414C279.018 100.302 279.409 101.554 280.456 102.073C280.842 102.252 281.262 102.343 281.687 102.341C282.119 102.373 282.552 102.295 282.945 102.114C283.333 101.898 283.653 101.579 283.871 101.192C284.359 100.303 284.578 99.2903 284.5 98.2785C284.476 99.0865 284.249 99.8755 283.839 100.572Z" fill="#201F34"/>
<path d="M255.626 135.296C257.19 135.296 258.458 134.437 258.458 133.377C258.458 132.316 257.19 131.457 255.626 131.457C254.062 131.457 252.794 132.316 252.794 133.377C252.794 134.437 254.062 135.296 255.626 135.296Z" fill="#575A89"/>
<path d="M163.314 240.223C216.928 240.223 260.39 196.761 260.39 143.147C260.39 89.5337 216.928 46.0713 163.314 46.0713C109.701 46.0713 66.2383 89.5337 66.2383 143.147C66.2383 196.761 109.701 240.223 163.314 240.223Z" fill="#FF6363"/>
<path d="M214.25 191.931C214.25 207.255 190.158 193.24 164.33 193.24C138.502 193.24 112.378 206.676 112.378 191.352C112.378 182.613 120.704 170.461 132.649 161.634C141.649 154.982 152.7 150.218 163.801 150.218C175.218 150.218 186.401 155.375 195.322 162.455C206.581 171.383 214.25 183.378 214.25 191.931Z" fill="#444053"/>
<path d="M195.319 162.449C181.59 160.382 156.76 157.862 132.649 161.628C141.649 154.976 152.7 150.212 163.802 150.212C175.215 150.212 186.398 155.369 195.319 162.449Z" fill="#F6F8FB"/>
<path opacity="0.05" d="M112.379 74.6211C112.379 74.6211 83.1363 93.3157 83.3755 122.558C83.6146 151.8 112.379 74.6211 112.379 74.6211Z" fill="black"/>
<path d="M260.352 21.8224C260.352 21.8224 233.857 20.227 236.982 38.7926C236.982 38.7926 236.352 42.0715 239.335 43.563C239.335 43.563 239.383 42.1879 242.051 42.6536C243.002 42.8127 243.968 42.8592 244.93 42.7921C246.23 42.7037 247.465 42.1932 248.448 41.3383C248.448 41.3383 255.897 38.264 258.795 26.0893C258.795 26.0893 260.938 23.4335 260.853 22.7538L256.381 24.6607C256.381 24.6607 257.907 27.8861 256.696 30.5671C256.696 30.5671 256.551 24.7803 255.692 24.903C255.519 24.9314 253.37 26.0201 253.37 26.0201C253.37 26.0201 255.997 31.6402 253.999 35.7214C253.999 35.7214 254.751 28.7987 252.533 26.426L249.386 28.2637C249.386 28.2637 252.457 34.0663 250.374 38.8021C250.374 38.8021 250.909 31.5395 248.725 28.7106L245.871 30.9353C245.871 30.9353 248.757 36.656 246.998 40.5831C246.998 40.5831 246.768 32.1279 245.254 31.4891C245.254 31.4891 242.759 33.6918 242.378 34.5949C242.378 34.5949 244.354 38.7454 243.13 40.9355C243.13 40.9355 242.378 35.3029 241.762 35.2715C241.762 35.2715 239.276 39.0035 239.015 41.5649C239.015 41.5649 239.125 37.7574 241.157 34.9159C241.157 34.9159 238.753 35.3281 237.353 36.8889C237.353 36.8889 237.74 34.2488 241.758 34.0191C241.758 34.0191 243.813 31.187 244.364 31.0171C244.364 31.0171 240.352 30.6804 237.919 31.7597C237.919 31.7597 240.059 29.2707 245.097 30.4004L247.929 28.1033C247.929 28.1033 242.649 27.3795 240.409 28.1788C240.409 28.1788 242.986 25.9761 248.687 27.5809L251.756 25.7464C251.756 25.7464 247.253 24.7772 244.568 25.117C244.568 25.117 247.4 23.5909 252.652 25.246L254.855 24.2611C254.855 24.2611 251.554 23.6129 250.588 23.5122C249.622 23.4115 249.572 23.1409 249.572 23.1409C251.668 22.8001 253.818 23.0496 255.78 23.8615C255.78 23.8615 260.431 22.115 260.352 21.8224Z" fill="#416FF4"/>
<path d="M233.177 13.5684C233.177 13.5684 221.219 12.8447 222.616 21.2338C222.616 21.2338 222.336 22.7159 223.68 23.3893C223.68 23.3893 223.699 22.7599 224.907 22.9802C225.337 23.0509 225.773 23.072 226.207 23.0432C226.795 23.0012 227.353 22.7705 227.799 22.3855C227.799 22.3855 231.163 20.9946 232.472 15.4942C232.472 15.4942 233.441 14.2953 233.416 13.9869L231.396 14.8491C231.396 14.8491 232.088 16.306 231.544 17.5175C231.544 17.5175 231.478 14.9026 231.091 14.9655C231.012 14.9655 230.04 15.469 230.04 15.469C230.04 15.469 231.229 18.0084 230.332 19.8524C230.332 19.8524 230.672 16.7246 229.671 15.6515L228.249 16.4823C228.249 16.4823 229.637 19.1066 228.696 21.2464C228.696 21.2464 228.935 17.9644 227.95 16.6868L226.66 17.6906C226.66 17.6906 227.963 20.274 227.17 22.0488C227.17 22.0488 227.066 18.2287 226.38 17.9392C226.38 17.9392 225.253 18.9335 225.08 19.3426C225.08 19.3426 225.974 21.2306 225.42 22.2093C225.42 22.2093 225.08 19.6636 224.791 19.6541C224.791 19.6541 223.668 21.3376 223.551 22.4862C223.605 21.4173 223.938 20.3813 224.517 19.4811C223.87 19.6036 223.272 19.9132 222.799 20.3716C222.799 20.3716 222.972 19.179 224.794 19.0751C224.794 19.0751 225.722 17.7976 225.971 17.7189C225.971 17.7189 224.158 17.5679 223.06 18.0556C223.06 18.0556 224.026 16.9291 226.304 17.4263L227.563 16.391C227.563 16.391 225.178 16.0763 224.165 16.4225C224.165 16.4225 225.329 15.4281 227.906 16.155L229.291 15.3243C229.291 15.3243 227.258 14.8869 226.043 15.0442C226.043 15.0442 227.324 14.3551 229.697 15.104L230.688 14.6572C230.688 14.6572 229.196 14.3645 228.762 14.3205C228.328 14.2764 228.299 14.1537 228.299 14.1537C229.244 13.9965 230.214 14.1055 231.1 14.4684C231.1 14.4684 233.211 13.7006 233.177 13.5684Z" fill="#416FF4"/>
<path opacity="0.1" d="M337.673 229.751C342.353 229.751 346.147 229.11 346.147 228.319C346.147 227.529 342.353 226.888 337.673 226.888C332.993 226.888 329.199 227.529 329.199 228.319C329.199 229.11 332.993 229.751 337.673 229.751Z" fill="#416FF4"/>
<path opacity="0.1" d="M14.7202 253.569C19.4003 253.569 23.1943 252.928 23.1943 252.137C23.1943 251.346 19.4003 250.705 14.7202 250.705C10.0401 250.705 6.24609 251.346 6.24609 252.137C6.24609 252.928 10.0401 253.569 14.7202 253.569Z" fill="#416FF4"/>
<path opacity="0.1" d="M63.9126 255.365C68.5927 255.365 72.3867 254.724 72.3867 253.934C72.3867 253.143 68.5927 252.502 63.9126 252.502C59.2325 252.502 55.4385 253.143 55.4385 253.934C55.4385 254.724 59.2325 255.365 63.9126 255.365Z" fill="#416FF4"/>
<path d="M319.127 245.802C326.115 245.802 331.779 244.844 331.779 243.662C331.779 242.48 326.115 241.522 319.127 241.522C312.139 241.522 306.474 242.48 306.474 243.662C306.474 244.844 312.139 245.802 319.127 245.802Z" fill="#416FF4"/>
<path d="M324.357 240.167C324.935 239.696 325.356 239.06 325.565 238.345C325.72 237.624 325.411 236.756 324.722 236.492C323.948 236.196 323.12 236.734 322.494 237.275C321.868 237.816 321.147 238.433 320.326 238.32C321.185 237.542 321.573 236.37 321.346 235.233C321.31 235.002 321.212 234.784 321.063 234.604C320.631 234.144 319.854 234.339 319.338 234.701C317.702 235.853 317.245 238.074 317.236 240.076C317.072 239.355 317.211 238.603 317.208 237.873C317.205 237.143 317 236.3 316.377 235.913C315.99 235.706 315.557 235.604 315.118 235.617C314.382 235.589 313.564 235.661 313.06 236.199C312.431 236.869 312.598 237.989 313.142 238.716C313.687 239.443 314.511 239.915 315.269 240.422C315.88 240.785 316.4 241.281 316.792 241.873C316.838 241.956 316.876 242.043 316.906 242.134H321.516C322.547 241.609 323.503 240.948 324.357 240.167Z" fill="#416FF4"/>
<path d="M18.6752 213.781C18.6752 213.781 20.4027 216.041 17.8759 219.445C15.3491 222.85 13.266 225.739 14.0998 227.866C14.0998 227.866 17.9105 221.528 21.0226 221.437C24.1347 221.346 22.0862 217.592 18.6752 213.781Z" fill="#416FF4"/>
<path opacity="0.1" d="M18.6749 213.781C18.8249 214 18.9436 214.238 19.0274 214.489C22.0545 218.045 23.6656 221.365 20.7581 221.447C18.0456 221.525 14.7793 226.371 14.0146 227.595C14.0414 227.69 14.0729 227.784 14.1091 227.875C14.1091 227.875 17.9197 221.538 21.0318 221.447C24.1439 221.355 22.086 217.592 18.6749 213.781Z" fill="black"/>
<path d="M21.8889 216.661C21.8889 217.457 21.7976 218.102 21.6875 218.102C21.5774 218.102 21.4893 217.473 21.4893 216.661C21.4893 215.849 21.5994 216.239 21.7127 216.239C21.826 216.239 21.8889 215.865 21.8889 216.661Z" fill="#FFD037"/>
<path d="M22.9774 217.611C22.2788 217.992 21.6715 218.222 21.618 218.124C21.5645 218.027 22.09 217.643 22.7886 217.262C23.4872 216.881 23.2102 217.158 23.2637 217.262C23.3172 217.366 23.6885 217.231 22.9774 217.611Z" fill="#FFD037"/>
<path d="M9.54349 213.781C9.54349 213.781 7.81594 216.041 10.3396 219.445C12.8633 222.85 14.9495 225.739 14.1157 227.866C14.1157 227.866 10.3018 221.528 7.19289 221.437C4.08394 221.346 6.1293 217.592 9.54349 213.781Z" fill="#416FF4"/>
<path opacity="0.1" d="M9.54414 213.781C9.39275 213.999 9.274 214.237 9.19171 214.489C6.16457 218.045 4.55031 221.365 7.46101 221.447C10.1703 221.525 13.4398 226.371 14.2013 227.595C14.1756 227.69 14.1451 227.784 14.11 227.875C14.11 227.875 10.2962 221.538 7.18726 221.447C4.0783 221.355 6.12996 217.592 9.54414 213.781Z" fill="black"/>
<path d="M6.33105 216.661C6.33105 217.457 6.41917 218.102 6.5293 218.102C6.63943 218.102 6.72754 217.473 6.72754 216.661C6.72754 215.849 6.61741 216.239 6.50727 216.239C6.39713 216.239 6.33105 215.865 6.33105 216.661Z" fill="#FFD037"/>
<path d="M5.22599 217.611C5.92456 217.992 6.53503 218.222 6.58852 218.124C6.64201 218.027 6.11651 217.643 5.41794 217.262C4.71937 216.881 4.99313 217.158 4.94279 217.262C4.89244 217.366 4.52742 217.231 5.22599 217.611Z" fill="#FFD037"/>
<path d="M6.88184 227.579C6.88184 227.579 11.7152 227.432 13.1753 226.393C14.6353 225.355 20.6109 224.118 20.9728 225.764C21.3347 227.409 28.2354 234.04 22.779 234.084C17.3226 234.128 10.1009 233.231 8.64714 232.347C7.19336 231.462 6.88184 227.579 6.88184 227.579Z" fill="#A8A8A8"/>
<path opacity="0.2" d="M22.8703 233.521C17.4139 233.566 10.1922 232.669 8.7384 231.784C7.63076 231.111 7.19022 228.691 7.04232 227.574H6.88184C6.88184 227.574 7.19651 231.473 8.64085 232.357C10.0852 233.241 17.3163 234.138 22.7727 234.094C24.3461 234.094 24.8905 233.518 24.8621 232.691C24.6419 233.197 24.044 233.512 22.8703 233.521Z" fill="black"/>
<path d="M128.801 130.419C130.648 130.315 139.343 129.661 144.865 126.511C145.752 125.989 146.754 125.694 147.782 125.652C149.538 125.601 151.558 126.335 150.265 130.438C148.169 137.15 136.001 144.702 128.449 144.283C121.186 143.881 112.57 140.954 106.881 130.664C106.336 129.674 106.068 128.556 106.104 127.426C106.17 125.35 106.925 122.747 110.824 125.649C116.092 129.566 126.085 130.309 128.09 130.419C128.327 130.432 128.564 130.432 128.801 130.419L128.801 130.419Z" fill="#444053"/>
<path d="M198.657 130.419C200.505 130.315 209.199 129.661 214.721 126.511C215.608 125.989 216.61 125.694 217.638 125.652C219.394 125.601 221.415 126.335 220.121 130.438C218.025 137.15 205.857 144.702 198.305 144.283C191.042 143.881 182.427 140.954 176.738 130.664C176.192 129.674 175.924 128.556 175.96 127.426C176.026 125.35 176.782 122.747 180.68 125.649C185.948 129.566 195.942 130.309 197.946 130.419C198.183 130.432 198.421 130.432 198.657 130.419L198.657 130.419Z" fill="#444053"/>
</g>
<defs>
<linearGradient id="paint0_linear" x1="314.869" y1="238.555" x2="314.869" y2="83.0954" gradientUnits="userSpaceOnUse">
<stop stop-color="#808080" stop-opacity="0.25098"/>
<stop offset="0.54" stop-color="#808080" stop-opacity="0.121569"/>
<stop offset="1" stop-color="#808080" stop-opacity="0.101961"/>
</linearGradient>
<clipPath id="clip0">
<rect width="347" height="256" fill="white" transform="translate(0 0.0390625)"/>
</clipPath>
</defs>
</svg>
