<svg width="21" height="21" viewBox="0 0 21 21" fill="none" xmlns="http://www.w3.org/2000/svg">
<path d="M10.5002 7.76614C8.99495 7.76614 7.76653 8.99455 7.76653 10.4998C7.76653 12.0051 8.99495 13.2335 10.5002 13.2335C12.0055 13.2335 13.2339 12.0051 13.2339 10.4998C13.2339 8.99455 12.0055 7.76614 10.5002 7.76614ZM18.6992 10.4998C18.6992 9.3678 18.7095 8.24602 18.6459 7.11604C18.5823 5.80354 18.2829 4.6387 17.3232 3.67893C16.3614 2.71711 15.1986 2.41975 13.8861 2.35618C12.754 2.2926 11.6322 2.30286 10.5023 2.30286C9.37024 2.30286 8.24846 2.2926 7.11848 2.35618C5.80598 2.41975 4.64114 2.71916 3.68137 3.67893C2.71956 4.64075 2.42219 5.80354 2.35862 7.11604C2.29504 8.24807 2.3053 9.36985 2.3053 10.4998C2.3053 11.6298 2.29504 12.7536 2.35862 13.8836C2.42219 15.1961 2.72161 16.361 3.68137 17.3207C4.64319 18.2825 5.80598 18.5799 7.11848 18.6435C8.25051 18.7071 9.37229 18.6968 10.5023 18.6968C11.6343 18.6968 12.7561 18.7071 13.8861 18.6435C15.1986 18.5799 16.3634 18.2805 17.3232 17.3207C18.285 16.3589 18.5823 15.1961 18.6459 13.8836C18.7115 12.7536 18.6992 11.6319 18.6992 10.4998ZM10.5002 14.706C8.17258 14.706 6.29407 12.8275 6.29407 10.4998C6.29407 8.17219 8.17258 6.29368 10.5002 6.29368C12.8279 6.29368 14.7064 8.17219 14.7064 10.4998C14.7064 12.8275 12.8279 14.706 10.5002 14.706ZM14.8786 7.10373C14.3352 7.10373 13.8963 6.66487 13.8963 6.12141C13.8963 5.57795 14.3352 5.13909 14.8786 5.13909C15.4221 5.13909 15.861 5.57795 15.861 6.12141C15.8611 6.25046 15.8358 6.37827 15.7865 6.49752C15.7372 6.61678 15.6649 6.72513 15.5736 6.81638C15.4824 6.90763 15.374 6.97998 15.2547 7.02929C15.1355 7.0786 15.0077 7.1039 14.8786 7.10373Z" fill="white"/>
</svg>
